<?xml version="1.0" encoding="UTF-8"?>
<svg width="51px" height="51px" viewBox="0 0 51 51" version="1.1" xmlns="http://www.w3.org/2000/svg" xmlns:xlink="http://www.w3.org/1999/xlink">
    <!-- Generator: Sketch 46.1 (44463) - http://www.bohemiancoding.com/sketch -->
    <title>service-icon-1</title>
    <desc>Created with Sketch.</desc>
    <defs></defs>
    <g id="Page-1" stroke="none" stroke-width="1" fill="none" fill-rule="evenodd">
        <g id="service-icon-1" fill-rule="nonzero">
            <path d="M13.275216,50.0039062 L4.58748148,50.0039062 L4.58748148,40.0226484 C4.58748148,39.0938906 5.38060494,38.341043 6.35904938,38.341043 L11.5035432,38.341043 C12.4819877,38.341043 13.2751111,39.0938906 13.2751111,40.0226484 L13.2751111,50.0039062 L13.275216,50.0039062 Z" id="Shape" fill="#FF991F"></path>
            <path d="M29.9059383,50.0039062 L21.2183086,50.0039062 L21.2183086,31.6583496 C21.2183086,30.7295918 22.0114321,29.9767441 22.9898765,29.9767441 L28.1343704,29.9767441 C29.1128148,29.9767441 29.9059383,30.7295918 29.9059383,31.6583496 L29.9059383,50.0039062 Z" id="Shape" fill="#FFD41D"></path>
            <path d="M46.5365556,50.0039062 L37.8489259,50.0039062 L37.8489259,17.2858125 C37.8489259,16.3570547 38.6420494,15.604207 39.6204938,15.604207 L44.7649877,15.604207 C45.7434321,15.604207 46.5365556,16.3570547 46.5365556,17.2858125 L46.5365556,50.0039062 L46.5365556,50.0039062 Z" id="Shape" fill="#92E03F"></path>
            <path d="M49.8875494,49.0078125 L47.5859383,49.0078125 L47.5859383,17.2858125 C47.5859383,15.8093027 46.3203827,14.6081133 44.7649877,14.6081133 L39.6204938,14.6081133 C38.0649938,14.6081133 36.7995432,15.8094023 36.7995432,17.2858125 L36.7995432,49.0078125 L30.955321,49.0078125 L30.955321,31.6583496 C30.955321,30.1818398 29.6898704,28.9806504 28.1343704,28.9806504 L22.9898765,28.9806504 C21.4343765,28.9806504 20.1689259,30.1819395 20.1689259,31.6583496 L20.1689259,49.0078125 L14.3247037,49.0078125 L14.3247037,40.0226484 C14.3247037,38.5461387 13.0591481,37.3449492 11.5037531,37.3449492 L6.35915432,37.3449492 C4.80365432,37.3449492 3.5382037,38.5462383 3.5382037,40.0226484 L3.5382037,49.0078125 L1.11245062,49.0078125 C0.532876543,49.0078125 0.0630679012,49.4537637 0.0630679012,50.0039062 C0.0630679012,50.5540488 0.532876543,51 1.11245062,51 L49.8875494,51 C50.4671235,51 50.9369321,50.5540488 50.9369321,50.0039062 C50.9369321,49.4537637 50.4671235,49.0078125 49.8875494,49.0078125 Z M5.6368642,49.0078125 L5.6368642,40.0226484 C5.6368642,39.6446309 5.96080864,39.3371367 6.35904938,39.3371367 L11.5035432,39.3371367 C11.901784,39.3371367 12.2257284,39.6446309 12.2257284,40.0226484 L12.2257284,49.0078125 L5.6368642,49.0078125 Z M22.2675864,49.0078125 L22.2675864,31.6583496 C22.2675864,31.280332 22.5915309,30.9728379 22.9897716,30.9728379 L28.1342654,30.9728379 C28.5324012,30.9728379 28.8564506,31.280332 28.8564506,31.6583496 L28.8564506,49.0078125 L22.2675864,49.0078125 Z M38.8983086,49.0078125 L38.8983086,17.2858125 C38.8983086,16.9077949 39.2222531,16.6003008 39.6204938,16.6003008 L44.7649877,16.6003008 C45.1632284,16.6003008 45.4871728,16.9077949 45.4871728,17.2858125 L45.4871728,49.0078125 L38.8983086,49.0078125 Z" id="Shape" fill="#000000"></path>
            <path d="M10.1103827,27.733043 C10.3789198,27.733043 10.6475617,27.6358242 10.8524012,27.4412871 L28.9750309,10.2388477 L32.8871296,13.9522852 C33.2969136,14.3412598 33.9613827,14.3412598 34.3712716,13.9522852 L45.4871728,3.40096289 L45.4871728,6.76875586 C45.4871728,7.31889844 45.9569815,7.76484961 46.5365556,7.76484961 C47.1161296,7.76484961 47.5859383,7.31889844 47.5859383,6.76875586 L47.5859383,1.09570312 C47.5859383,1.0794668 47.5841543,1.06362891 47.5834198,1.04749219 C47.5981111,0.775658203 47.4973704,0.499242188 47.278679,0.29165625 C47.0599877,0.0840703125 46.768784,-0.0116542969 46.4824074,0.002390625 C46.4655123,0.00169335937 46.4488272,0 46.4316173,0 L40.0828519,0 C39.5032778,0 39.0334691,0.445951172 39.0334691,0.99609375 C39.0334691,1.54623633 39.5032778,1.9921875 40.0828519,1.9921875 L44.0030309,1.9921875 L33.6291481,11.8393711 L29.7170494,8.12593359 C29.5202901,7.93916602 29.2533272,7.83417773 28.9750309,7.83417773 C28.6967346,7.83417773 28.4297716,7.93916602 28.2330123,8.12593359 L9.3683642,26.0327109 C8.95858025,26.4216855 8.95858025,27.0524121 9.3683642,27.4414863 C9.57330864,27.6358242 9.84184568,27.733043 10.1103827,27.733043 Z" id="Shape" fill="#000000"></path>
            <ellipse id="Oval" fill="#000000" cx="6.57333333" cy="30.2125195" rx="1.04938272" ry="1"></ellipse>
        </g>
    </g>
</svg>