<?xml version="1.0" encoding="UTF-8"?>
<svg width="51px" height="66px" viewBox="0 0 51 66" version="1.1" xmlns="http://www.w3.org/2000/svg" xmlns:xlink="http://www.w3.org/1999/xlink">
    <!-- Generator: Sketch 46.1 (44463) - http://www.bohemiancoding.com/sketch -->
    <title>service-icon-2</title>
    <desc>Created with Sketch.</desc>
    <defs></defs>
    <g id="Page-1" stroke="none" stroke-width="1" fill="none" fill-rule="evenodd">
        <g id="service-icon-2" fill-rule="nonzero">
            <path d="M29.4005893,59.8131111 L21.9884158,59.8131111 C20.3397628,59.8131111 19.0033546,58.4915673 19.0033546,56.8612515 L19.0033546,50.0996608 L32.3856505,50.0996608 L32.3856505,54.1570526 L32.3856505,56.8611228 C32.3855204,58.4914386 31.0491122,59.8131111 29.4005893,59.8131111 Z" id="Shape" fill="#F2427F"></path>
            <path d="M43.392023,24.1863626 C43.392023,14.4379181 35.3318112,6.55111111 25.4421046,6.68748538 C15.9455663,6.81819883 8.18016582,14.4563158 8.00010459,23.8464561 C7.89901531,29.1210526 10.1583673,33.8757544 13.8038265,37.1477076 C15.8284745,38.9648304 16.9735026,41.5495088 16.9735026,44.253193 L16.9735026,46.8350409 C16.9735026,48.6381404 18.4517219,50.0999181 20.275102,50.0999181 L31.1140332,50.0999181 C32.9374133,50.0999181 34.4156327,48.6381404 34.4156327,46.8350409 L34.4156327,44.2533216 C34.4156327,41.5369006 35.5819974,38.9532515 37.6121097,37.1233918 C41.1632449,33.9227135 43.392023,29.3121053 43.392023,24.1863626 Z" id="Shape" fill="#FFD41D"></path>
            <path d="M37.1278699,24.1285965 C37.1278699,30.3729942 32.008875,35.434924 25.6943724,35.434924 C23.0050332,35.434924 20.5324439,34.5167135 18.5800026,32.9800585 C15.9480383,30.9085848 14.260875,27.7134386 14.260875,24.1285965 C14.260875,17.8841988 19.3798699,12.822269 25.6943724,12.822269 C32.008875,12.822269 37.1278699,17.8841988 37.1278699,24.1285965 Z" id="Shape" fill="#0084FF"></path>
            <g id="Group" transform="translate(18.474490, 20.713450)" fill="#FF991F">
                <ellipse id="Oval" cx="7.00027041" cy="3.41463158" rx="3.38980867" ry="3.35210526"></ellipse>
                <path d="M7.21988265,6.76725146 L7.21988265,6.76725146 C3.72989541,6.76725146 0.814308673,9.12292398 0.106163265,12.2663509 C2.05860459,13.8030058 4.53067347,14.7216023 7.21988265,14.7216023 C9.90909184,14.7216023 12.3811607,13.8028772 14.333602,12.2663509 C13.6254566,9.12279532 10.7098699,6.76725146 7.21988265,6.76725146 Z" id="Shape"></path>
            </g>
            <ellipse id="Oval" fill="#000000" cx="25.6939821" cy="64.5810643" rx="1.30518367" ry="1.29066667"></ellipse>
            <ellipse id="Oval" fill="#000000" cx="25.6939821" cy="40.0504211" rx="1.30518367" ry="1.29066667"></ellipse>
            <ellipse id="Oval" fill="#000000" cx="1.43034184" cy="24.1280819" rx="1.30518367" ry="1.29066667"></ellipse>
            <ellipse id="Oval" fill="#000000" cx="49.5700485" cy="24.1280819" rx="1.30518367" ry="1.29066667"></ellipse>
            <ellipse id="Oval" fill="#000000" cx="46.5800434" cy="12.3654152" rx="1.30518367" ry="1.29066667"></ellipse>
            <ellipse id="Oval" fill="#000000" cx="39.3169668" cy="4.33490058" rx="1.30518367" ry="1.29066667"></ellipse>
            <ellipse id="Oval" fill="#000000" cx="25.4747602" cy="1.29066667" rx="1.30518367" ry="1.29066667"></ellipse>
            <ellipse id="Oval" fill="#000000" cx="12.5761837" cy="4.33490058" rx="1.30518367" ry="1.29066667"></ellipse>
            <ellipse id="Oval" fill="#000000" cx="4.79881378" cy="12.3654152" rx="1.30518367" ry="1.29066667"></ellipse>
            <path d="M39.0369872,10.8062456 C35.387625,7.24739181 30.5587577,5.32464327 25.4237602,5.39694737 C20.4902908,5.46487719 15.8319872,7.41194152 12.3068724,10.8797076 C8.78162755,14.3476023 6.78859439,18.9438012 6.69505102,23.8220117 C6.59083929,29.2502222 8.86203061,34.4554737 12.9264184,38.1033567 C14.6687449,39.6670292 15.6679286,41.9085848 15.6679286,44.253193 L15.6679286,46.8350409 C15.6679286,48.4036023 16.4740408,49.7896023 17.6979107,50.6092632 L17.6979107,56.8612515 C17.6979107,59.2004561 19.6225102,61.1037778 21.9880255,61.1037778 L29.400199,61.1037778 C31.7658444,61.1037778 33.6904439,59.2005848 33.6904439,56.8612515 L33.6904439,50.6092632 C34.9143138,49.7896023 35.7202959,48.4036023 35.7202959,46.8350409 L35.7202959,44.253193 C35.7202959,41.9152749 36.7300179,39.6641988 38.490949,38.0772398 C42.4348622,34.5227602 44.6968163,29.4598012 44.6968163,24.1864912 C44.6970765,19.1174854 42.687,14.3657427 39.0369872,10.8062456 Z M31.0804668,56.8611228 C31.0804668,57.7771462 30.3269158,58.5224444 29.4004592,58.5224444 L21.9882857,58.5224444 C21.0620893,58.5224444 20.3084082,57.7772749 20.3084082,56.8611228 L20.3084082,51.3901988 L31.0804668,51.3901988 L31.0804668,56.8611228 L31.0804668,56.8611228 Z M36.7330102,36.1692865 C34.4307245,38.2442339 33.1103189,41.1905614 33.1103189,44.2530643 L33.1103189,46.8349123 C33.1103189,47.9235906 32.2148265,48.8089942 31.1140332,48.8089942 L26.9995561,48.8089942 L26.9995561,44.5463977 C26.9995561,43.8336491 26.4151378,43.255731 25.6943724,43.255731 C24.9737372,43.255731 24.3891888,43.8335205 24.3891888,44.5463977 L24.3891888,48.8089942 L20.2748418,48.8089942 C19.1739184,48.8089942 18.278426,47.9233333 18.278426,46.8349123 L18.278426,44.2530643 C18.278426,41.1820702 16.9671276,38.243848 14.6809745,36.1919298 C11.1747245,33.0449006 9.21525765,28.5540702 9.30515816,23.8709006 C9.47103827,15.2278596 16.7182423,8.09831579 25.460449,7.97789474 C25.5390306,7.9768655 25.6174821,7.97622222 25.6960638,7.97622222 C30.0334056,7.97622222 34.1122347,9.62853801 37.2043699,12.6439532 C40.3530995,15.7145614 42.0870995,19.8137661 42.0870995,24.1863626 C42.0868393,28.7352164 40.1354388,33.102924 36.7330102,36.1692865 Z" id="Shape" fill="#000000"></path>
            <path d="M25.6943724,11.5314737 C18.6702934,11.5314737 12.9558214,17.182386 12.9558214,24.1283392 C12.9558214,24.8410877 13.5402398,25.4190058 14.2610051,25.4190058 C14.9817704,25.4190058 15.5661888,24.8412164 15.5661888,24.1283392 C15.5661888,18.6056959 20.1097423,14.1126784 25.6945026,14.1126784 C31.2792628,14.1126784 35.8228163,18.6056959 35.8228163,24.1283392 C35.8228163,24.8410877 36.4072347,25.4190058 37.128,25.4190058 C37.8487653,25.4190058 38.4331837,24.8412164 38.4331837,24.1283392 C38.4330536,17.1826433 32.7184515,11.5314737 25.6943724,11.5314737 Z" id="Shape" fill="#000000"></path>
            <path d="M29.2167551,26.9278713 C29.8139235,26.1489942 30.1692321,25.1790643 30.1692321,24.1284678 C30.1692321,21.5684912 28.0630102,19.4856959 25.4742398,19.4856959 C22.8854694,19.4856959 20.7792474,21.5684912 20.7792474,24.1284678 C20.7792474,25.2468655 21.1813929,26.2743041 21.8501173,27.0765965 C19.5911556,28.1760819 17.8669133,30.2125614 17.3066939,32.6989474 C17.1980587,33.1810175 17.3772092,33.682 17.7677755,33.989614 C20.0422194,35.779462 22.7830791,36.7255906 25.6942423,36.7255906 C28.6056658,36.7255906 31.3465255,35.779462 33.6208393,33.989614 C34.0114056,33.682 34.1905561,33.1810175 34.0819209,32.6989474 C33.4956811,30.0957427 31.6330102,27.9856725 29.2167551,26.9278713 Z M25.4742398,22.0670292 C26.6238214,22.0670292 27.5588648,22.9919298 27.5588648,24.1284678 C27.5588648,25.2650058 26.6236913,26.1899064 25.4742398,26.1899064 C24.3246582,26.1899064 23.3896148,25.2650058 23.3896148,24.1284678 C23.3896148,22.9918012 24.3247883,22.0670292 25.4742398,22.0670292 Z M25.6943724,34.1442573 C23.6719362,34.1442573 21.7531913,33.5701988 20.0951709,32.4762456 C20.9530638,30.2882105 23.1865255,28.7711111 25.6943724,28.7711111 C28.2024796,28.7711111 30.4358112,30.2880819 31.2937041,32.4762456 C29.6356837,33.5701988 27.7169388,34.1442573 25.6943724,34.1442573 Z" id="Shape" fill="#000000"></path>
        </g>
    </g>
</svg>