<?xml version="1.0" encoding="UTF-8"?>
<svg width="51px" height="51px" viewBox="0 0 51 51" version="1.1" xmlns="http://www.w3.org/2000/svg" xmlns:xlink="http://www.w3.org/1999/xlink">
    <!-- Generator: Sketch 46.1 (44463) - http://www.bohemiancoding.com/sketch -->
    <title>service-icon-3</title>
    <desc>Created with Sketch.</desc>
    <defs></defs>
    <g id="Page-1" stroke="none" stroke-width="1" fill="none" fill-rule="evenodd">
        <g id="service-icon-3" fill-rule="nonzero">
            <g id="Group" transform="translate(0.996094, 14.700000)" fill="#0084FF">
                <path d="M35.0540332,11.9756 L35.0540332,17.9672 C35.0540332,22.2354 33.3651563,26.3287 30.3588457,29.3469 L24.4839844,35.2447 L23.7438867,20.787 L35.0540332,11.9756 Z" id="Shape"></path>
                <path d="M23.4479473,0.2382 L17.2158867,0.0575 C12.9643594,0.0575 8.88694922,1.753 5.88063867,4.7711 L0.00577734375,10.669 L14.407002,11.4119 L23.4479473,0.2382 Z" id="Shape"></path>
            </g>
            <path d="M13.6554492,28.2727 C14.4022207,29.6506 15.5857793,31.4883 17.4040488,33.3263 C19.2738164,35.2163 21.1515527,36.436 22.5449883,37.1971 C27.9481992,32.9878 33.3515098,28.7784 38.7546211,24.5691 C45.4611211,19.3443 49.5594492,11.439 49.9744219,2.927 L49.9982285,2.4384 C50.0366777,1.6513 49.3842363,1.0059 48.6008086,1.0561 L47.6697598,1.1157 C39.5731113,1.6346 32.0601738,5.5248 26.9449336,11.8471 L13.6554492,28.2727 Z" id="Shape" fill="#00C3FF"></path>
            <g id="Group" transform="translate(11.156250, 11.400000)" fill="#F2427F">
                <path d="M3.4711875,18.4966 L0.0485097656,22.5756 C0.490875,23.5139 1.21543359,24.7523 2.39600391,25.9473 C3.60994336,27.1762 4.87528125,27.923 5.82416016,28.3739 C7.08401953,27.3477 8.69540039,25.9687 9.95525977,24.9425" id="Shape"></path>
                <ellipse id="Oval" cx="25.5263965" cy="3.3245" rx="3.2565293" ry="3.2693"></ellipse>
            </g>
            <path d="M9.07989258,38.9658 L6.68787305,40.1616 C5.32571484,40.8425 4.42504688,42.1971 4.3211543,43.7213 L4.22642578,45.112 C4.16038477,46.0793 4.96044727,46.8825 5.92406836,46.8163 L7.30943555,46.7211 C8.82758203,46.6168 10.1769902,45.7126 10.8552305,44.3451 L12.0463594,41.9436" id="Shape" fill="#FF991F"></path>
            <ellipse id="Oval" fill="#000000" cx="1.00207031" cy="49.9446" rx="1.00207031" ry="1.006"></ellipse>
            <ellipse id="Oval" fill="#000000" cx="26.5962012" cy="24.4308" rx="1.00007812" ry="1.004"></ellipse>
            <path d="M36.6824473,10.4516 C35.5455059,10.4516 34.476498,10.8962 33.6726504,11.7032 C32.0130586,13.3694 32.0130586,16.0804 33.6726504,17.7465 C34.5025957,18.5796 35.5923223,18.996 36.6824473,18.996 C37.7722734,18.996 38.862498,18.5794 39.6922441,17.7465 L39.6922441,17.7465 C41.3518359,16.0803 41.3518359,13.3693 39.6922441,11.7032 C38.8883965,10.8961 37.8193887,10.4516 36.6824473,10.4516 Z M38.2780898,16.3266 C37.3982402,17.2098 35.9665547,17.2098 35.0869043,16.3266 C34.2070547,15.4434 34.2070547,14.0062 35.0869043,13.1229 C35.5131328,12.695 36.0797109,12.4594 36.6824473,12.4594 C37.2851836,12.4594 37.8517617,12.695 38.2779902,13.1229 C39.1578398,14.0062 39.1578398,15.4434 38.2780898,16.3266 Z" id="Shape" fill="#000000"></path>
            <path d="M12.4919121,41.045 C11.9974512,40.7978 11.3972051,40.9999 11.1509707,41.4962 L9.9598418,43.8977 C9.44187305,44.9418 8.4001582,45.64 7.2409043,45.7196 L5.85553711,45.8148 C5.62135547,45.8305 5.46735938,45.7134 5.39613867,45.6419 C5.32491797,45.5704 5.20797656,45.4155 5.22391406,45.1806 L5.31874219,43.7899 C5.39813086,42.6262 6.09360352,41.5803 7.13352539,41.0603 L9.52554492,39.8645 C10.0200059,39.6173 10.2212168,39.0146 9.97498242,38.5183 C9.72884766,38.022 9.12850195,37.8199 8.63404102,38.0671 L6.24202148,39.2629 C4.56938086,40.0991 3.4509668,41.7811 3.32326758,43.6527 L3.22843945,45.0434 C3.17724023,45.7941 3.45176367,46.5297 3.98168555,47.0617 C4.46957227,47.5515 5.12958398,47.8241 5.81479687,47.8241 C5.87366602,47.8241 5.93293359,47.8221 5.99210156,47.818 L7.37746875,47.7228 C9.24175781,47.5947 10.9171875,46.472 11.7501211,44.7926 L12.94125,42.3912 C13.1874844,41.8948 12.9862734,41.2922 12.4919121,41.045 Z" id="Shape" fill="#000000"></path>
            <path d="M50.309707,0.718 C49.8404473,0.2539 49.1939824,0.0112 48.5373574,0.0541 L47.606209,0.1137 C39.2570508,0.6488 31.4433926,4.6947 26.1687773,11.2141 L23.9769727,13.923 L18.241166,13.7539 C18.2314043,13.7536 18.221543,13.7535 18.2118809,13.7535 C13.6629199,13.7535 9.38619141,15.5319 6.16950586,18.7611 L0.294744141,24.659 C0.0153398438,24.9395 -0.0734121094,25.359 0.0684316406,25.7292 C0.210275391,26.0995 0.555919922,26.3513 0.950572266,26.3715 L13.3862051,27.0129 L12.8791934,27.6396 C12.6236953,27.9554 12.5832539,28.3949 12.7769941,28.7523 C12.9718301,29.1119 13.1760293,29.4658 13.3889941,29.814 L10.439959,33.3287 C10.1878477,33.6292 10.1335605,34.0497 10.3008047,34.405 C10.9449785,35.7715 11.7999258,36.9993 12.8422383,38.0543 C13.9098516,39.1351 15.1582559,40.0189 16.5525879,40.6814 C16.6888535,40.7462 16.8349805,40.7779 16.9802109,40.7779 C17.2054277,40.7779 17.428752,40.7015 17.6104395,40.5536 C18.245748,40.0362 18.9781758,39.4225 19.6865977,38.8291 C20.1915176,38.4061 20.7081914,37.9734 21.1908984,37.5744 C21.4790684,37.7485 21.7708242,37.9173 22.0669629,38.079 C22.2167754,38.1608 22.3810312,38.2011 22.5446895,38.2011 C22.7624355,38.2011 22.9787871,38.1299 23.1578848,37.9903 L23.8395117,37.4593 L24.4811953,49.9963 C24.5015156,50.3925 24.7522324,50.7395 25.1209863,50.8819 C25.2377285,50.9269 25.3590527,50.9489 25.4795801,50.9489 C25.7400586,50.9489 25.9958555,50.8466 26.1869063,50.6547 L32.0617676,44.7568 C35.2784531,41.5275 37.0498066,37.2341 37.0498066,32.6672 L37.0498066,27.1677 L39.367418,25.3622 C46.3131797,19.9512 50.5431914,11.7918 50.9731055,2.976 L50.9969121,2.4874 C51.0293848,1.827 50.7787676,1.1822 50.309707,0.718 Z M3.29936133,24.4822 L7.58375977,20.181 C10.4191406,17.3345 14.1881602,15.7653 18.1974375,15.7614 L22.389498,15.885 L14.9476816,25.083 L3.29936133,24.4822 Z M18.4052227,37.2874 C17.8831699,37.7246 17.3479688,38.173 16.8513164,38.5831 C15.8906836,38.0608 15.0216914,37.4091 14.2622695,36.6403 C13.5267539,35.8958 12.900709,35.0481 12.3958887,34.1143 L14.5550215,31.541 C15.2078613,32.4203 15.922459,33.2532 16.6944316,34.0335 C16.6950293,34.0341 16.695627,34.0346 16.6962246,34.0352 C16.6964238,34.0354 16.696623,34.0357 16.6968223,34.0359 C16.6971211,34.0362 16.6974199,34.0364 16.6977188,34.0367 C17.5536621,34.9015 18.4743516,35.6951 19.4510215,36.4128 C19.1061738,36.7002 18.7528594,36.9962 18.4052227,37.2874 Z M35.0500488,32.6672 C35.0500488,36.6977 33.4866797,40.4869 30.6477129,43.337 L26.3633145,47.6382 L25.765459,35.959 L35.0499492,28.726 L35.0499492,32.6672 L35.0500488,32.6672 Z M48.9757383,2.8779 C48.5744121,11.1076 44.625498,18.7246 38.1415254,23.7759 L22.4570332,35.9948 C21.156334,35.2318 19.9439883,34.3309 18.8344395,33.3102 L24.1223027,28.0016 C24.5127715,27.6096 24.5127715,26.9738 24.1223027,26.5817 C23.7317344,26.1896 23.0985176,26.1896 22.7079492,26.5817 L17.4250664,31.8853 C16.4537754,30.8058 15.5935488,29.6312 14.8611211,28.3749 L27.7212891,12.48 C32.6451797,6.3941 39.939375,2.6171 47.7335098,2.1177 L48.6646582,2.0581 C48.7866797,2.0505 48.8683594,2.1113 48.9060117,2.1485 C48.9434648,2.1856 49.0056211,2.2663 48.9996445,2.3894 L48.9757383,2.8779 Z" id="Shape" fill="#000000"></path>
        </g>
    </g>
</svg>